<svg height="16" preserveAspectRatio="xMinYMin meet" viewBox="0 0 16 16" width="16" xmlns="http://www.w3.org/2000/svg"><path d="m0 0h15v1h-1v1h-12v12h-1v1h-1z" fill="#fff"/><path d="m15 0h1v1h-1z" fill="#bdbdbd"/><path d="m14 1h1v1h-1z" fill="#bdbdbd"/><path d="m15 1h1v15h-15v-1h1v-1h12v-12h1z" fill="#7b7b7b"/><path d="m2 2h12v12h-12z" fill="#bdbdbd"/><path d="m7 3h2v5h-2v-1h-2v-1h-1v-1h1v-1h2z" fill="#f00"/><path d="m8 8h1v2h1v1h2v2h-8v-2h2v-1h2z"/><g fill="#bdbdbd"><path d="m1 14h1v1h-1z"/><path d="m0 15h1v1h-1z"/></g></svg>