<svg height="23" preserveAspectRatio="xMinYMin meet" viewBox="0 0 13 23" width="13" xmlns="http://www.w3.org/2000/svg"><path d="m0 0h13v23h-13z"/><path d="m2 1h9v1h-1v1h-1v1h-5v-1h-1v-1h-1z" fill="#f00"/><path d="m1 2h1v1h1v1h1v5h-1v1h-1v1h-1z" fill="#f00"/><path d="m2 2h1v1h-1z"/><path d="m10 2h1v1h-1z"/><path d="m11 2h1v1h-1z" fill="#7b0000"/><path d="m3 3h1v1h-1z"/><path d="m9 3h1v1h-1z"/><path d="m10 3h1v1h-1z" fill="#7b0000"/><path d="m4 4h5v1h1v1h-1v1h1v1h-1v1h1v1h-7v-1h1z"/><path d="m9 4h1v1h-1z" fill="#7b0000"/><path d="m10 4h1v1h-1z"/><g fill="#7b0000"><path d="m11 4h1v1h-1z"/><path d="m10 5h1v1h-1z"/><path d="m9 6h1v1h-1z"/></g><path d="m10 6h1v1h-1z"/><path d="m11 6h1v1h-1z" fill="#7b0000"/><path d="m10 7h1v1h-1z" fill="#7b0000"/><path d="m9 8h1v1h-1z" fill="#7b0000"/><path d="m10 8h1v1h-1z"/><path d="m11 8h1v1h-1z" fill="#7b0000"/><path d="m10 9h1v1h-1z" fill="#7b0000"/><path d="m2 10h1v1h-1z"/><path d="m3 10h7v1h1v1h-1v1h-7v-1h-1v-1h1z" fill="#f00"/><path d="m10 10h1v1h-1z"/><path d="m11 10h1v1h-1z" fill="#7b0000"/><path d="m1 12h1v1h-1z" fill="#7b0000"/><path d="m2 12h1v1h-1z"/><path d="m10 12h1v1h-1z"/><path d="m11 12h1v9h-1v-1h-1v-1h-1v-5h1v-1h1z" fill="#f00"/><path d="m2 13h1v1h-1z" fill="#7b0000"/><path d="m3 13h7v1h-1v5h-5v-1h-1v-1h1v-1h-1v-1h1v-1h-1z"/><path d="m1 14h1v1h-1z" fill="#7b0000"/><path d="m2 14h1v1h-1z"/><path d="m3 14h1v1h-1z" fill="#7b0000"/><path d="m2 15h1v1h-1z" fill="#7b0000"/><path d="m1 16h1v1h-1z" fill="#7b0000"/><path d="m2 16h1v1h-1z"/><path d="m3 16h1v1h-1z" fill="#7b0000"/><path d="m2 17h1v1h-1z" fill="#7b0000"/><path d="m1 18h1v1h-1z" fill="#7b0000"/><path d="m2 18h1v1h-1z"/><path d="m3 18h1v1h-1z" fill="#7b0000"/><path d="m2 19h1v1h-1z" fill="#7b0000"/><path d="m3 19h1v1h-1z"/><path d="m4 19h5v1h1v1h1v1h-9v-1h1v-1h1z" fill="#f00"/><path d="m9 19h1v1h-1z"/><path d="m1 20h1v1h-1z" fill="#7b0000"/><path d="m2 20h1v1h-1z"/><path d="m10 20h1v1h-1z"/></svg>