<svg height="23" preserveAspectRatio="xMinYMin meet" viewBox="0 0 13 23" width="13" xmlns="http://www.w3.org/2000/svg"><path d="m0 0h13v23h-13z"/><path d="m3 1h1v1h-1z" fill="#7b0000"/><path d="m5 1h1v1h-1z" fill="#7b0000"/><path d="m7 1h1v1h-1z" fill="#7b0000"/><path d="m9 1h1v1h-1z" fill="#7b0000"/><path d="m1 2h1v1h-1z" fill="#7b0000"/><path d="m4 2h1v1h-1z" fill="#7b0000"/><path d="m5 2h1v1h-1z"/><path d="m6 2h1v1h-1z" fill="#7b0000"/><path d="m7 2h1v1h-1z"/><path d="m8 2h1v1h-1z" fill="#7b0000"/><path d="m11 2h1v9h-1v-1h-1v-1h-1v-5h1v-1h1z" fill="#f00"/><path d="m2 3h1v1h-1z" fill="#7b0000"/><path d="m5 3h1v1h-1z" fill="#7b0000"/><path d="m7 3h1v1h-1z" fill="#7b0000"/><path d="m1 4h1v1h-1z" fill="#7b0000"/><path d="m2 4h1v1h-1z"/><path d="m3 4h1v1h-1z" fill="#7b0000"/><path d="m2 5h1v1h-1z" fill="#7b0000"/><path d="m1 6h1v1h-1z" fill="#7b0000"/><path d="m2 6h1v1h-1z"/><path d="m3 6h1v1h-1z" fill="#7b0000"/><path d="m2 7h1v1h-1z" fill="#7b0000"/><path d="m1 8h1v1h-1z" fill="#7b0000"/><path d="m2 8h1v1h-1z"/><g fill="#7b0000"><path d="m3 8h1v1h-1z"/><path d="m2 9h1v1h-1z"/><path d="m1 10h1v1h-1z"/><path d="m4 10h1v1h-1z"/><path d="m6 10h1v1h-1z"/><path d="m8 10h1v1h-1z"/><path d="m3 11h1v1h-1z"/></g><path d="m4 11h1v1h-1z"/><path d="m5 11h1v1h-1z" fill="#7b0000"/><path d="m6 11h1v1h-1z"/><path d="m7 11h1v1h-1z" fill="#7b0000"/><path d="m8 11h1v1h-1z"/><path d="m9 11h1v1h-1z" fill="#7b0000"/><path d="m1 12h1v1h-1z" fill="#7b0000"/><path d="m4 12h1v1h-1z" fill="#7b0000"/><path d="m6 12h1v1h-1z" fill="#7b0000"/><path d="m8 12h1v1h-1z" fill="#7b0000"/><path d="m11 12h1v9h-1v-1h-1v-1h-1v-5h1v-1h1z" fill="#f00"/><path d="m2 13h1v1h-1z" fill="#7b0000"/><path d="m1 14h1v1h-1z" fill="#7b0000"/><path d="m2 14h1v1h-1z"/><path d="m3 14h1v1h-1z" fill="#7b0000"/><path d="m2 15h1v1h-1z" fill="#7b0000"/><path d="m1 16h1v1h-1z" fill="#7b0000"/><path d="m2 16h1v1h-1z"/><path d="m3 16h1v1h-1z" fill="#7b0000"/><path d="m2 17h1v1h-1z" fill="#7b0000"/><path d="m1 18h1v1h-1z" fill="#7b0000"/><path d="m2 18h1v1h-1z"/><path d="m3 18h1v1h-1z" fill="#7b0000"/><path d="m2 19h1v1h-1z" fill="#7b0000"/><path d="m5 19h1v1h-1z" fill="#7b0000"/><path d="m7 19h1v1h-1z" fill="#7b0000"/><path d="m1 20h1v1h-1z" fill="#7b0000"/><path d="m4 20h1v1h-1z" fill="#7b0000"/><path d="m5 20h1v1h-1z"/><path d="m6 20h1v1h-1z" fill="#7b0000"/><path d="m7 20h1v1h-1z"/><path d="m8 20h1v1h-1z" fill="#7b0000"/><path d="m3 21h1v1h-1z" fill="#7b0000"/><path d="m5 21h1v1h-1z" fill="#7b0000"/><path d="m7 21h1v1h-1z" fill="#7b0000"/><path d="m9 21h1v1h-1z" fill="#7b0000"/></svg>