<svg height="23" preserveAspectRatio="xMinYMin meet" viewBox="0 0 13 23" width="13" xmlns="http://www.w3.org/2000/svg"><path d="m0 0h13v23h-13z"/><path d="m2 1h9v1h-1v1h-1v1h-5v-1h-1v-1h-1z" fill="#f00"/><path d="m1 2h1v1h1v1h1v5h-1v1h-1v1h-1z" fill="#f00"/><path d="m2 2h1v1h-1z"/><path d="m10 2h1v1h-1z"/><path d="m11 2h1v9h-1v-1h-1v-1h-1v-5h1v-1h1z" fill="#f00"/><path d="m3 3h1v1h-1z"/><path d="m9 3h1v1h-1z"/><g fill="#7b0000"><path d="m4 10h1v1h-1z"/><path d="m6 10h1v1h-1z"/><path d="m8 10h1v1h-1z"/><path d="m3 11h1v1h-1z"/></g><path d="m4 11h1v1h-1z"/><path d="m5 11h1v1h-1z" fill="#7b0000"/><path d="m6 11h1v1h-1z"/><path d="m7 11h1v1h-1z" fill="#7b0000"/><path d="m8 11h1v1h-1z"/><path d="m9 11h1v1h-1z" fill="#7b0000"/><path d="m1 12h1v1h1v1h1v5h-1v1h-1v1h-1z" fill="#f00"/><path d="m4 12h1v1h-1z" fill="#7b0000"/><path d="m6 12h1v1h-1z" fill="#7b0000"/><path d="m8 12h1v1h-1z" fill="#7b0000"/><path d="m11 12h1v9h-1v-1h-1v-1h-1v-5h1v-1h1z" fill="#f00"/><path d="m3 19h1v1h-1z"/><path d="m4 19h5v1h1v1h1v1h-9v-1h1v-1h1z" fill="#f00"/><path d="m9 19h1v1h-1z"/><path d="m2 20h1v1h-1z"/><path d="m10 20h1v1h-1z"/></svg>