<svg height="26" preserveAspectRatio="xMinYMin meet" viewBox="0 0 26 26" width="26" xmlns="http://www.w3.org/2000/svg"><path d="m0 0h25v1h-24v24h-1z" fill="#7b7b7b"/><path d="m25 0h1v1h-1z" fill="#bdbdbd"/><path d="m1 1h23v1h-1v1h-20v20h-1v1h-1z" fill="#fff"/><path d="m24 1h1v1h-1z" fill="#bdbdbd"/><path d="m25 1h1v25h-25v-1h1v-1h1v-1h20v-20h1v-1h1z" fill="#7b7b7b"/><path d="m23 2h1v1h-1z" fill="#bdbdbd"/><path d="m3 3h20v20h-20z" fill="#bdbdbd"/><path d="m11 5h5v1h-5z"/><path d="m9 6h2v1h-2z"/><path d="m11 6h5v1h2v1h1v1h1v2h1v2h-1v-1h-1v-1h-1v-1h-9v1h-1v1h-1v1h-1v-2h1v-2h1v-1h1v-1h2z" fill="#ff0"/><path d="m16 6h2v1h-2z"/><path d="m8 7h1v1h-1z"/><path d="m18 7h1v1h-1z"/><path d="m7 8h1v1h-1z"/><path d="m19 8h1v1h-1z"/><path d="m6 9h1v2h-1z"/><path d="m20 9h1v2h-1z"/><path d="m9 10h9v1h1v1h-1v1h-1v1h-2v-1h-1v-2h-1v2h-1v1h-2v-1h-1v-1h-1v-1h1z"/><path d="m5 11h1v2h1v1h-1v2h-1z"/><path d="m13 11h1v2h1v1h3v-2h1v1h1v1h1v2h-1v2h-1v1h-1v1h-2v1h-5v-1h-2v-1h-1v-1h-1v-2h-1v-2h1v-1h1v-1h1v2h3v-1h1z" fill="#ff0"/><path d="m21 11h1v5h-1v-2h-1v-1h1z"/><path d="m7 12h1v1h-1z"/><path d="m19 12h1v1h-1z"/><path d="m9 13h1v1h-1z" fill="#7b7b00"/><path d="m17 13h1v1h-1z" fill="#7b7b00"/><path d="m6 16h1v2h-1z"/><path d="m10 16h1v1h-1z"/><path d="m16 16h1v1h-1z"/><path d="m20 16h1v2h-1z"/><path d="m11 17h5v1h-5z"/><path d="m7 18h1v1h-1z"/><path d="m19 18h1v1h-1z"/><path d="m8 19h1v1h-1z"/><path d="m18 19h1v1h-1z"/><path d="m9 20h2v1h-2z"/><path d="m16 20h2v1h-2z"/><path d="m11 21h5v1h-5z"/><g fill="#bdbdbd"><path d="m2 23h1v1h-1z"/><path d="m1 24h1v1h-1z"/><path d="m0 25h1v1h-1z"/></g></svg>