<svg height="26" preserveAspectRatio="xMinYMin meet" viewBox="0 0 26 26" width="26" xmlns="http://www.w3.org/2000/svg"><path d="m0 0h25v1h1v25h-25v-1h-1z" fill="#7b7b7b"/><path d="m25 0h1v1h-1z" fill="#bdbdbd"/><path d="m2 2h23v23h-23z" fill="#bdbdbd"/><path d="m12 6h5v1h-5z"/><path d="m10 7h2v1h-2z"/><path d="m12 7h5v1h2v1h1v1h1v2h1v5h-1v2h-1v1h-1v1h-2v1h-5v-1h-2v-1h-1v-1h-1v-2h-1v-5h1v-2h1v-1h1v-1h2z" fill="#ff0"/><path d="m17 7h2v1h-2z"/><path d="m9 8h1v1h-1z"/><path d="m19 8h1v1h-1z"/><path d="m8 9h1v1h-1z"/><path d="m20 9h1v1h-1z"/><path d="m7 10h1v2h-1z"/><path d="m21 10h1v2h-1z"/><path d="m11 11h2v2h-2z"/><path d="m16 11h2v2h-2z"/><path d="m6 12h1v5h-1z"/><path d="m22 12h1v5h-1z"/><path d="m10 16h1v1h-1z"/><path d="m18 16h1v1h-1z"/><path d="m7 17h1v2h-1z"/><path d="m11 17h1v1h-1z"/><path d="m17 17h1v1h-1z"/><path d="m21 17h1v2h-1z"/><path d="m12 18h5v1h-5z"/><path d="m8 19h1v1h-1z"/><path d="m20 19h1v1h-1z"/><path d="m9 20h1v1h-1z"/><path d="m19 20h1v1h-1z"/><path d="m10 21h2v1h-2z"/><path d="m17 21h2v1h-2z"/><path d="m12 22h5v1h-5z"/><path d="m0 25h1v1h-1z" fill="#bdbdbd"/></svg>